# xmcd
#
# Track frame offsets: 
#        150
#        14976
#        37668
#        67635
#        85818
#        125304
#        153135
#        182250
#        219093
#        251598
#
# Disc length: 3901 seconds
#
# Revision: 0
# Processed by: cddbd v1.4PL0 Copyright (c) Steve Scherf et al.
# Submitted via: ExactAudioCopy v0.90b4
#
DISCID=6b0f3b0a
DTITLE=Blue Floyd - 2-24-2001 Disc One
DYEAR=2001
DGENRE=Blues
TTITLE0=bf2001-02-24d1t1
TTITLE1=bf2001-02-24d1t2
TTITLE2=bf2001-02-24d1t3
TTITLE3=bf2001-02-24d1t4
TTITLE4=bf2001-02-24d1t5
TTITLE5=bf2001-02-24d1t6
TTITLE6=bf2001-02-24d1t7
TTITLE7=bf2001-02-24d1t8
TTITLE8=bf2001-02-24d1t9
TTITLE9=bf2001-02-24d1t10
EXTD=
EXTT0=
EXTT1=
EXTT2=
EXTT3=
EXTT4=
EXTT5=
EXTT6=
EXTT7=
EXTT8=
EXTT9=
PLAYORDER=
